<svg width="174" height="40" viewBox="0 0 174 40" fill="none" xmlns="http://www.w3.org/2000/svg">
<path d="M62.512 12.248C64.272 12.248 65.816 12.592 67.144 13.28C68.488 13.968 69.52 14.952 70.24 16.232C70.976 17.496 71.344 18.968 71.344 20.648C71.344 22.328 70.976 23.8 70.24 25.064C69.52 26.312 68.488 27.28 67.144 27.968C65.816 28.656 64.272 29 62.512 29H56.656V12.248H62.512ZM62.392 26.144C64.152 26.144 65.512 25.664 66.472 24.704C67.432 23.744 67.912 22.392 67.912 20.648C67.912 18.904 67.432 17.544 66.472 16.568C65.512 15.576 64.152 15.08 62.392 15.08H60.016V26.144H62.392ZM86.2191 22.064C86.2191 22.544 86.1871 22.976 86.1231 23.36H76.4031C76.4831 24.32 76.8191 25.072 77.4111 25.616C78.0031 26.16 78.7311 26.432 79.5951 26.432C80.8431 26.432 81.7311 25.896 82.2591 24.824H85.8831C85.4991 26.104 84.7631 27.16 83.6751 27.992C82.5871 28.808 81.2511 29.216 79.6671 29.216C78.3871 29.216 77.2351 28.936 76.2111 28.376C75.2031 27.8 74.4111 26.992 73.8351 25.952C73.2751 24.912 72.9951 23.712 72.9951 22.352C72.9951 20.976 73.2751 19.768 73.8351 18.728C74.3951 17.688 75.1791 16.888 76.1871 16.328C77.1951 15.768 78.3551 15.488 79.6671 15.488C80.9311 15.488 82.0591 15.76 83.0511 16.304C84.0591 16.848 84.8351 17.624 85.3791 18.632C85.9391 19.624 86.2191 20.768 86.2191 22.064ZM82.7391 21.104C82.7231 20.24 82.4111 19.552 81.8031 19.04C81.1951 18.512 80.4511 18.248 79.5711 18.248C78.7391 18.248 78.0351 18.504 77.4591 19.016C76.8991 19.512 76.5551 20.208 76.4271 21.104H82.7391ZM93.7596 29.216C92.6716 29.216 91.6956 29.024 90.8316 28.64C89.9676 28.24 89.2796 27.704 88.7676 27.032C88.2716 26.36 87.9996 25.616 87.9516 24.8H91.3356C91.3996 25.312 91.6476 25.736 92.0796 26.072C92.5276 26.408 93.0796 26.576 93.7356 26.576C94.3756 26.576 94.8716 26.448 95.2236 26.192C95.5916 25.936 95.7756 25.608 95.7756 25.208C95.7756 24.776 95.5516 24.456 95.1036 24.248C94.6716 24.024 93.9756 23.784 93.0156 23.528C92.0236 23.288 91.2076 23.04 90.5676 22.784C89.9436 22.528 89.3996 22.136 88.9356 21.608C88.4876 21.08 88.2636 20.368 88.2636 19.472C88.2636 18.736 88.4716 18.064 88.8876 17.456C89.3196 16.848 89.9276 16.368 90.7116 16.016C91.5116 15.664 92.4476 15.488 93.5196 15.488C95.1036 15.488 96.3676 15.888 97.3116 16.688C98.2556 17.472 98.7756 18.536 98.8716 19.88H95.6556C95.6076 19.352 95.3836 18.936 94.9836 18.632C94.5996 18.312 94.0796 18.152 93.4236 18.152C92.8156 18.152 92.3436 18.264 92.0076 18.488C91.6876 18.712 91.5276 19.024 91.5276 19.424C91.5276 19.872 91.7516 20.216 92.1996 20.456C92.6476 20.68 93.3436 20.912 94.2876 21.152C95.2476 21.392 96.0396 21.64 96.6636 21.896C97.2876 22.152 97.8236 22.552 98.2716 23.096C98.7356 23.624 98.9756 24.328 98.9916 25.208C98.9916 25.976 98.7756 26.664 98.3436 27.272C97.9276 27.88 97.3196 28.36 96.5196 28.712C95.7356 29.048 94.8156 29.216 93.7596 29.216ZM105.11 17.624C105.542 17.016 106.134 16.512 106.886 16.112C107.654 15.696 108.526 15.488 109.502 15.488C110.638 15.488 111.662 15.768 112.574 16.328C113.502 16.888 114.23 17.688 114.758 18.728C115.302 19.752 115.574 20.944 115.574 22.304C115.574 23.664 115.302 24.872 114.758 25.928C114.23 26.968 113.502 27.776 112.574 28.352C111.662 28.928 110.638 29.216 109.502 29.216C108.526 29.216 107.662 29.016 106.91 28.616C106.174 28.216 105.574 27.712 105.11 27.104V35.336H101.75V15.704H105.11V17.624ZM112.142 22.304C112.142 21.504 111.974 20.816 111.638 20.24C111.318 19.648 110.886 19.2 110.342 18.896C109.814 18.592 109.238 18.44 108.614 18.44C108.006 18.44 107.43 18.6 106.886 18.92C106.358 19.224 105.926 19.672 105.59 20.264C105.27 20.856 105.11 21.552 105.11 22.352C105.11 23.152 105.27 23.848 105.59 24.44C105.926 25.032 106.358 25.488 106.886 25.808C107.43 26.112 108.006 26.264 108.614 26.264C109.238 26.264 109.814 26.104 110.342 25.784C110.886 25.464 111.318 25.008 111.638 24.416C111.974 23.824 112.142 23.12 112.142 22.304ZM130.375 22.064C130.375 22.544 130.343 22.976 130.279 23.36H120.559C120.639 24.32 120.975 25.072 121.567 25.616C122.159 26.16 122.887 26.432 123.751 26.432C124.999 26.432 125.887 25.896 126.415 24.824H130.039C129.655 26.104 128.919 27.16 127.831 27.992C126.743 28.808 125.407 29.216 123.823 29.216C122.543 29.216 121.391 28.936 120.367 28.376C119.359 27.8 118.567 26.992 117.991 25.952C117.431 24.912 117.151 23.712 117.151 22.352C117.151 20.976 117.431 19.768 117.991 18.728C118.551 17.688 119.335 16.888 120.343 16.328C121.351 15.768 122.511 15.488 123.823 15.488C125.087 15.488 126.215 15.76 127.207 16.304C128.215 16.848 128.991 17.624 129.535 18.632C130.095 19.624 130.375 20.768 130.375 22.064ZM126.895 21.104C126.879 20.24 126.567 19.552 125.959 19.04C125.351 18.512 124.607 18.248 123.727 18.248C122.895 18.248 122.191 18.504 121.615 19.016C121.055 19.512 120.711 20.208 120.583 21.104H126.895ZM137.916 29.216C136.828 29.216 135.852 29.024 134.988 28.64C134.124 28.24 133.436 27.704 132.924 27.032C132.428 26.36 132.156 25.616 132.108 24.8H135.492C135.556 25.312 135.804 25.736 136.236 26.072C136.684 26.408 137.236 26.576 137.892 26.576C138.532 26.576 139.028 26.448 139.38 26.192C139.748 25.936 139.932 25.608 139.932 25.208C139.932 24.776 139.708 24.456 139.26 24.248C138.828 24.024 138.132 23.784 137.172 23.528C136.18 23.288 135.364 23.04 134.724 22.784C134.1 22.528 133.556 22.136 133.092 21.608C132.644 21.08 132.42 20.368 132.42 19.472C132.42 18.736 132.628 18.064 133.044 17.456C133.476 16.848 134.084 16.368 134.868 16.016C135.668 15.664 136.604 15.488 137.676 15.488C139.26 15.488 140.524 15.888 141.468 16.688C142.412 17.472 142.932 18.536 143.028 19.88H139.812C139.764 19.352 139.54 18.936 139.14 18.632C138.756 18.312 138.236 18.152 137.58 18.152C136.972 18.152 136.5 18.264 136.164 18.488C135.844 18.712 135.684 19.024 135.684 19.424C135.684 19.872 135.908 20.216 136.356 20.456C136.804 20.68 137.5 20.912 138.444 21.152C139.404 21.392 140.196 21.64 140.82 21.896C141.444 22.152 141.98 22.552 142.428 23.096C142.892 23.624 143.132 24.328 143.148 25.208C143.148 25.976 142.932 26.664 142.5 27.272C142.084 27.88 141.476 28.36 140.676 28.712C139.892 29.048 138.972 29.216 137.916 29.216ZM145.042 22.304C145.042 20.96 145.306 19.768 145.834 18.728C146.378 17.688 147.106 16.888 148.018 16.328C148.946 15.768 149.978 15.488 151.114 15.488C152.106 15.488 152.97 15.688 153.706 16.088C154.458 16.488 155.058 16.992 155.506 17.6V15.704H158.89V29H155.506V27.056C155.074 27.68 154.474 28.2 153.706 28.616C152.954 29.016 152.082 29.216 151.09 29.216C149.97 29.216 148.946 28.928 148.018 28.352C147.106 27.776 146.378 26.968 145.834 25.928C145.306 24.872 145.042 23.664 145.042 22.304ZM155.506 22.352C155.506 21.536 155.346 20.84 155.026 20.264C154.706 19.672 154.274 19.224 153.73 18.92C153.186 18.6 152.602 18.44 151.978 18.44C151.354 18.44 150.778 18.592 150.25 18.896C149.722 19.2 149.29 19.648 148.954 20.24C148.634 20.816 148.474 21.504 148.474 22.304C148.474 23.104 148.634 23.808 148.954 24.416C149.29 25.008 149.722 25.464 150.25 25.784C150.794 26.104 151.37 26.264 151.978 26.264C152.602 26.264 153.186 26.112 153.73 25.808C154.274 25.488 154.706 25.04 155.026 24.464C155.346 23.872 155.506 23.168 155.506 22.352ZM167.26 29.216C166.172 29.216 165.196 29.024 164.332 28.64C163.468 28.24 162.78 27.704 162.268 27.032C161.772 26.36 161.5 25.616 161.452 24.8H164.836C164.9 25.312 165.148 25.736 165.58 26.072C166.028 26.408 166.58 26.576 167.236 26.576C167.876 26.576 168.372 26.448 168.724 26.192C169.092 25.936 169.276 25.608 169.276 25.208C169.276 24.776 169.052 24.456 168.604 24.248C168.172 24.024 167.476 23.784 166.516 23.528C165.524 23.288 164.708 23.04 164.068 22.784C163.444 22.528 162.9 22.136 162.436 21.608C161.988 21.08 161.764 20.368 161.764 19.472C161.764 18.736 161.972 18.064 162.388 17.456C162.82 16.848 163.428 16.368 164.212 16.016C165.012 15.664 165.948 15.488 167.02 15.488C168.604 15.488 169.868 15.888 170.812 16.688C171.756 17.472 172.276 18.536 172.372 19.88H169.156C169.108 19.352 168.884 18.936 168.484 18.632C168.1 18.312 167.58 18.152 166.924 18.152C166.316 18.152 165.844 18.264 165.508 18.488C165.188 18.712 165.028 19.024 165.028 19.424C165.028 19.872 165.252 20.216 165.7 20.456C166.148 20.68 166.844 20.912 167.788 21.152C168.748 21.392 169.54 21.64 170.164 21.896C170.788 22.152 171.324 22.552 171.772 23.096C172.236 23.624 172.476 24.328 172.492 25.208C172.492 25.976 172.276 26.664 171.844 27.272C171.428 27.88 170.82 28.36 170.02 28.712C169.236 29.048 168.316 29.216 167.26 29.216Z" fill="white"/>
<path d="M34.1422 5.85781C30.3647 2.08031 25.3422 0 20 0C14.6578 0 9.63531 2.08031 5.85781 5.85781C2.08031 9.63531 0 14.6578 0 20C0 25.3422 2.08039 30.3646 5.85781 34.1422C9.63523 37.9198 14.6578 40 20 40C25.3422 40 30.3647 37.9197 34.1422 34.1422C37.9197 30.3647 40 25.3422 40 20C40 14.6578 37.9196 9.63539 34.1422 5.85781Z" fill="#33CC95"/>
<g clip-path="url(#clip0_1_4)">
<path d="M20.5714 8V33.1429" stroke="white" stroke-width="2" stroke-linecap="round" stroke-linejoin="round"/>
<path d="M26.2857 12.5714H17.7143C16.6534 12.5714 15.636 12.9929 14.8859 13.743C14.1357 14.4931 13.7143 15.5106 13.7143 16.5714C13.7143 17.6323 14.1357 18.6497 14.8859 19.3999C15.636 20.15 16.6534 20.5714 17.7143 20.5714H23.4286C24.4894 20.5714 25.5068 20.9929 26.257 21.743C27.0071 22.4931 27.4286 23.5106 27.4286 24.5714C27.4286 25.6323 27.0071 26.6497 26.257 27.3999C25.5068 28.15 24.4894 28.5714 23.4286 28.5714H13.7143" stroke="white" stroke-width="2" stroke-linecap="round" stroke-linejoin="round"/>
</g>
<defs>
<clipPath id="clip0_1_4">
<rect width="27.4286" height="27.4286" fill="white" transform="translate(6.85714 6.85714)"/>
</clipPath>
</defs>
</svg>
